<svg xmlns="http://www.w3.org/2000/svg" xmlns:xlink="http://www.w3.org/1999/xlink" width="365.764" height="792" version="1.1" viewBox="0 0 365.764 792"><g transform="translate(-401.118 878) scale(1.485 -1.485) rotate(0 399.99999999999994 299.99999999999994)"><g id="Layer_14iKWWi-tbQ6ndcHOY4_7kc"><g><rect width="800" height="600" x="0" fill="#FFF"/><radialGradient id="SVGID_1_iKWWi-tbQ6ndcHOY4_7kc" cx="617.404" cy="518.913" r="363.675" fx="496.26" fy="634.84" gradientTransform="matrix(1.0958 0 0 0.6318 -276.026 -20.9463)" gradientUnits="userSpaceOnUse"><stop offset="0" stop-color="#CCC"/><stop offset=".278" stop-color="#D0D0D0"/><stop offset=".561" stop-color="#DCDCDC"/><stop offset=".845" stop-color="#F1F1F1"/><stop offset="1" stop-color="#FFF"/></radialGradient><rect width="801" height="457" y="79" fill="url(#SVGID_1_iKWWi-tbQ6ndcHOY4_7kc)"/><g><path fill="#FAFAFA" d="M182.086,204l0.588,4.051c0.028,0.186,0.112,0.356,0.247,0.491 c0.135,0.132,0.306,0.222,0.491,0.247l4.049,0.586l-4.051,0.588c-0.186,0.028-0.356,0.112-0.491,0.247 c-0.132,0.132-0.222,0.306-0.247,0.491l-0.586,4.049l-0.588-4.051c-0.028-0.186-0.112-0.356-0.247-0.491 c-0.135-0.132-0.306-0.222-0.491-0.247l-4.049-0.586l4.051-0.588c0.186-0.028,0.356-0.112,0.491-0.247 c0.132-0.132,0.222-0.306,0.247-0.491L182.086,204z"/><path fill="#FAFAFA" d="M187.462,321.625l0.588,4.051c0.028,0.186,0.112,0.356,0.247,0.491 c0.135,0.132,0.306,0.222,0.491,0.247l4.049,0.586l-4.051,0.588c-0.186,0.028-0.356,0.112-0.491,0.247 c-0.132,0.132-0.222,0.306-0.247,0.491l-0.586,4.049l-0.588-4.051c-0.028-0.186-0.112-0.356-0.247-0.491 c-0.135-0.132-0.306-0.222-0.491-0.247L182.086,327l4.051-0.588c0.186-0.028,0.356-0.112,0.491-0.247 c0.132-0.132,0.222-0.306,0.247-0.491L187.462,321.625z"/><path fill="#FFF" d="M611.086,263l1.135,7.82c0.054,0.359,0.216,0.688,0.477,0.949c0.26,0.256,0.59,0.428,0.949,0.477 l7.815,1.13l-7.82,1.135c-0.359,0.054-0.688,0.216-0.949,0.477c-0.256,0.256-0.428,0.59-0.477,0.949l-1.13,7.815l-1.135-7.82 c-0.054-0.359-0.216-0.688-0.477-0.949c-0.26-0.256-0.59-0.428-0.949-0.477l-7.815-1.13l7.82-1.135 c0.359-0.054,0.688-0.216,0.949-0.477c0.256-0.256,0.428-0.59,0.477-0.949L611.086,263z"/><path fill="#FFF" d="M564.086,402l0.807,5.559c0.038,0.255,0.154,0.489,0.339,0.674 c0.185,0.182,0.419,0.304,0.674,0.339l5.555,0.804l-5.559,0.807c-0.255,0.038-0.489,0.154-0.674,0.339 c-0.182,0.182-0.304,0.419-0.339,0.674l-0.804,5.555l-0.807-5.559c-0.038-0.255-0.154-0.489-0.339-0.674 c-0.185-0.182-0.419-0.304-0.674-0.339l-5.555-0.804l5.559-0.807c0.255-0.038,0.489-0.154,0.674-0.339 c0.182-0.182,0.304-0.419,0.339-0.674L564.086,402z"/><path fill="#FFF" d="M156.086,209l1.464,10.081c0.07,0.463,0.279,0.887,0.615,1.223 c0.336,0.329,0.76,0.551,1.223,0.615l10.074,1.457l-10.081,1.464c-0.463,0.07-0.887,0.279-1.223,0.615 c-0.329,0.329-0.551,0.76-0.615,1.223l-1.457,10.074l-1.464-10.081c-0.07-0.463-0.279-0.887-0.615-1.223 c-0.336-0.329-0.76-0.551-1.223-0.615l-10.074-1.457l10.081-1.464c0.463-0.07,0.887-0.279,1.223-0.615 c0.329-0.329,0.551-0.76,0.615-1.223L156.086,209z"/><path fill="#FFF" d="M459.086,391l1.245,8.573c0.059,0.393,0.237,0.754,0.523,1.04c0.286,0.28,0.647,0.469,1.04,0.523 l8.568,1.239l-8.573,1.245c-0.393,0.059-0.754,0.237-1.04,0.523c-0.28,0.28-0.469,0.647-0.523,1.04l-1.239,8.568l-1.245-8.573 c-0.059-0.393-0.237-0.754-0.523-1.04c-0.286-0.28-0.647-0.469-1.04-0.523l-8.568-1.239l8.573-1.245 c0.393-0.059,0.754-0.237,1.04-0.523c0.28-0.28,0.469-0.647,0.523-1.04L459.086,391z"/><path fill="#FAFAFA" d="M355.086,408l1.354,9.327c0.064,0.428,0.258,0.821,0.569,1.131 c0.311,0.305,0.703,0.51,1.131,0.569l9.321,1.348l-9.327,1.354c-0.428,0.064-0.821,0.258-1.131,0.569 c-0.305,0.305-0.51,0.703-0.569,1.131l-1.348,9.321l-1.354-9.327c-0.064-0.428-0.258-0.821-0.569-1.131 c-0.311-0.305-0.703-0.51-1.131-0.569l-9.321-1.348l9.327-1.354c0.428-0.064,0.821-0.258,1.131-0.569 c0.305-0.305,0.51-0.703,0.569-1.131L355.086,408z"/><circle cx="242" cy="232" r="3" fill="#FAFAFA"/><circle cx="259" cy="213" r="2" fill="#FAFAFA"/><circle cx="136" cy="405.117" r="2" fill="#FFF"/><circle cx="301" cy="323" r="2" fill="#FAFAFA"/><circle cx="176.711" cy="432.751" r="2" fill="#FFF"/><circle cx="387" cy="296" r="2" fill="#FAFAFA"/><circle cx="331" cy="274" r="2" fill="#EEE"/><circle cx="331" cy="264" r="2" fill="#EEE"/><circle cx="299" cy="464.333" r="2" fill="#FFF"/><circle cx="292" cy="258" r="2" fill="#FAFAFA"/><circle cx="352" cy="178" r="2" fill="#FFF"/><circle cx="394" cy="367" r="2" fill="#FAFAFA"/><circle cx="211.31" cy="441.69" r="4.021" fill="#FAFAFA"/><circle cx="583" cy="342" r="3" fill="#FAFAFA"/><circle cx="279" cy="323" r="3" fill="#EEE"/><circle cx="462" cy="370" r="3" fill="#FFF"/><circle cx="388" cy="227" r="3" fill="#FFF"/><circle cx="441" cy="472" r="3" fill="#FFF"/><circle cx="243" cy="294" r="3" fill="#EEE"/><circle cx="600.711" cy="354.017" r="2" fill="#FFF"/><circle cx="610.909" cy="327" r="3" fill="#FFF"/><circle cx="465" cy="462.333" r="3" fill="#FFF"/><circle cx="517" cy="391" r="2" fill="#FAFAFA"/><circle cx="371.146" cy="370.854" r="1.619" fill="#F5F5F5"/><circle cx="170" cy="275" r="2" fill="#FAFAFA"/><circle cx="113" cy="294" r="3" fill="#FAFAFA"/><path fill="#FAFAFA" d="M399.086,327l0.588,4.051c0.028,0.186,0.112,0.357,0.247,0.491 c0.135,0.132,0.306,0.222,0.491,0.247l4.049,0.586l-4.051,0.588c-0.186,0.028-0.356,0.112-0.491,0.247 c-0.132,0.132-0.222,0.306-0.247,0.491l-0.586,4.049l-0.588-4.051c-0.028-0.186-0.112-0.357-0.247-0.491 c-0.135-0.132-0.306-0.222-0.491-0.247l-4.049-0.586l4.051-0.588c0.186-0.028,0.357-0.112,0.491-0.247 c0.132-0.132,0.222-0.306,0.247-0.491L399.086,327z"/></g></g></g></g><g transform="translate(22.781 474.97) scale(0.887 0.887) rotate(0 159.12063134160087 159.12063134160087)"><g id="Layer_141bpUu7pcYcltjNGBQsf_I"><g><g><radialGradient id="SVGID_1_1bpUu7pcYcltjNGBQsf_I" cx="159.206" cy="159.206" r="159.206" gradientUnits="userSpaceOnUse"><stop offset="0" stop-color="#4C4C4C"/><stop offset=".463" stop-color="#4E4E4E"/><stop offset=".629" stop-color="#555"/><stop offset=".748" stop-color="#606060"/><stop offset=".844" stop-color="#717171"/><stop offset=".925" stop-color="#878787"/><stop offset=".997" stop-color="#727272"/><stop offset="1" stop-color="#737373"/></radialGradient><path fill="url(#SVGID_1_1bpUu7pcYcltjNGBQsf_I)" d="M79.205,174.205c-5,16-4,34,2,50c13,35,44,59,81,67c20,4,39,4,59-1c31-8,57-24,78-47 c-33,40-84,61-138,52c-30-5-55-20-75-43c-34-40-35-103,5-139c-43,24-51,83-32,125c24,53,82,83,139,80c-18,0-36,0-54-5 c-17-5-31-12-46-22c-27-19-45-43-53-75c-8-33-5-66,16-96c20-28,50-43,83-41c-16-5-34-4-50,2c-35,13-59,44-67,81c-4,20-4,39,1,59 c8,31,24,57,47,78c-40-33-61-84-52-138c5-30,20-55,43-75c40-34,103-35,139,5c-24-43-83-51-125-32c-53,24-83,82-80,139 c0-18,0-36,5-54c5-17,12-31,22-46c19-27,43-45,75-53c33-8,66-5,96,16c28,20,43,50,41,83c5-16,4-34-2-50c-13-35-44-59-81-67 c-20-4-39-4-59,1c-31,8-57,24-78,47c33-40,84-61,138-52c30,5,55,20,75,43c34,40,35,103-5,139c43-24,51-83,32-125 c-24-53-82-83-139-80c18,0,36,0,54,5c17,5,31,12,46,22c27,19,45,43,53,75c8,33,5,66-16,96c-20,28-50,43-83,41c16,5,34,4,50-2 c35-13,59-44,67-81c4-20,4-39-1-59c-8-31-24-57-47-78c40,33,61,84,52,138c-5,30-20,55-43,75c-40,34-103,35-139-5 c24,43,83,51,125,32c53-24,83-82,80-139c0,18,0,36-5,54c-5,17-12,31-22,46c-19,27-43,45-75,53c-33,8-66,5-96-16 C92.205,237.205,77.205,207.205,79.205,174.205L79.205,174.205z"/></g><circle cx="159.205" cy="159.205" r="70" fill="#505050"/></g></g></g><g transform="translate(-20.205 230.11) scale(1.236 1.235) rotate(418.1184608724337 146.9822006472492 110.62348178137653)"><g id="Layer_144bWI2eZ8mldJ40ny1_SOC"><g><polygon fill="#E8E8E8" points="229.82 122.231 266.286 8.094 198.435 7.895 198.813 121.264"/><path fill="#C4CED3" d="M249.024,116.586l31.78-99.379c0.908-2.84-0.761-5.865-3.607-6.537l-10.911-2.577L229.82,122.231 l15.174-2.191C246.871,119.77,248.434,118.43,249.024,116.586z"/><polyline fill="#F2F2F2" points="197.197 31.601 258.735 31.726 229.82 122.231 222.931 122.016"/><path fill="#CFD8DC" d="M274.667,36.394v0.007l-25.643,80.187c-0.589,1.84-2.153,3.179-4.03,3.455l-15.175,2.19 l28.916-90.509L274.667,36.394z"/><path fill="#64B5F6" d="M147.793,46.877l-4.848-8.311c-0.154-0.265-0.419-0.447-0.721-0.498l-2.543-0.424 c-0.844-0.141-1.703,0.135-2.308,0.74l-5.166,5.166c-1.034,1.034-1.034,2.711,0,3.745l3.947,3.947l2.167,3.363l7.697-1.677 L147.793,46.877z"/><path fill="none" stroke="#F2F2F2" d="M187.075,83.977 c-12.137,0-50.194,30.553-50.194,5.092s-23.278,1.455-23.278-21.824c0-18.317,32.735-18.914,32.735-32.008 c0-21.238-91.84,27.624-127.109,46.58c-8.22,4.418-13.289,7.251-13.289,7.251"/><g><path fill="#BDBDBD" d="M4.26,95.009L0,87.389L19.721,76.61c0.709-0.387,1.597-0.123,1.979,0.588l2.755,5.126 c0.378,0.704,0.118,1.582-0.584,1.965L4.26,95.009z"/></g><g><polygon fill="#757575" points="9.395 92.161 5.135 84.541 16.841 78.167 20.974 85.856"/></g><path fill="#1E88E5" d="M219.083,194.55l1.455,11.639l0.727,8.002l-13.094,6.547c0,0-11.639,1.455-15.276-0.727 c0,0,0.234-8.043,5.511-10.682c5.277-2.638,5.401-6.05,3.219-14.052C207.031,195.711,219.083,194.55,219.083,194.55z"/><path fill="#3949AB" d="M220.795,209.017l0.47,5.173l-13.094,6.547c0,0-11.639,1.455-15.276-0.727 c0,0,0.201-6.9,4.423-10.015c0.336-0.248,1.397-0.897,3.579-0.897c4.365,0,8.111,5.261,10.184,5.092 C215.195,213.856,220.795,209.017,220.795,209.017z"/><path fill="#64B5F6" d="M289.645,87.614c0,0,5.082,8.52,4.116,19.286c-0.166,1.85-2.656,2.344-3.522,0.7 c-0.385-0.731-0.833-1.566-1.352-2.518c-1.798-3.296-4.334-7.285-5.789-7.285c-0.519,0-0.944,0.907-1.132,1.442 c-0.365,1.04-0.976,2.192-1.838,2.193c-1.395,0.002-1.662-2.074-2.122-3.625c-0.469-1.581-0.727-6.557-0.727-6.557l0.727-8.002 L289.645,87.614z"/><path fill="#64B5F6" d="M266.454,62.881c-0.531-0.48-1.099-0.902-1.71-1.266l-33.965-20.39c0,0-34.83,4.219-38.919,4.823 c-4.088,0.611-6.46,3.092-6.46,3.092l0.001,0.004l-0.004-0.008L164.842,63.6c-0.598,0.421-1.416,0.332-1.91-0.207l-15.14-16.516 l-4.041,6.533l-5.771,0.666l16.986,26.357c1.363,2.114,3.929,3.114,6.363,2.478l22.489-5.876l-5.254,24.771 c-0.306,1.12,13.603,9.813,13.603,9.813s34.394-2.873,35.041-4.51c-0.124,0.146,10.788-33.317,10.788-33.317l19.634,5.369 c0.968,0.298,1.899,0.727,2.757,1.28l16.891,10.81c2.641-6.329,12.367-3.637,12.367-3.637 C284.575,79.321,270.055,66.096,266.454,62.881z"/><path fill="#1E88E5" d="M156.841,56.748l-9.049-9.871c-6.355,6.967-9.812,7.199-9.812,7.199l7.967,12.363 C145.947,66.439,152.091,65.123,156.841,56.748z"/><path fill="none" stroke="#F2F2F2" d="M196.532,42.513 c0,0-12.367-0.386-12.367,19.74c0,18.623,5.752,26.816,5.752,26.816"/><path fill="#64B5F6" d="M188.468,55.546l-9.905,46.261c-0.306,1.12,13.603,9.813,13.603,9.813s34.394-2.873,35.041-4.51 C227.085,107.255,188.468,55.546,188.468,55.546z"/><path fill="#1E88E5" d="M265.836,83.928l11.443,7.323c2.641-6.329,12.367-3.637,12.367-3.637 c-2.129-3.481-5.922-7.832-9.875-11.946C279.771,75.668,266.185,75.668,265.836,83.928z"/><path fill="#64B5F6" d="M176.891,107.983l-34.549,23.219c-0.728,0.522-1.384,1.137-1.953,1.83l-22.422,27.327 c0,0-1.455,10.912,11.639,10.912c0,0,12.176-8.793,24.134-21.814c0.909-0.99,2.016-1.78,3.237-2.341l44.647-19.492L182.71,108.71 l-4.365-5.092L176.891,107.983z"/><path fill="#1E88E5" d="M150.551,125.685l-8.209,5.517c-0.728,0.522-1.384,1.137-1.953,1.83l-6.53,7.958 c0,0,7.649,6.452,10.431,8.915c0.576,0.51,1.447,0.488,1.99-0.058c1.486-1.493,2.993-3.062,4.496-4.698 c0.918-0.998,2.016-1.814,3.248-2.379l4.504-2.067c0.813-0.373,1.1-1.384,0.604-2.129L150.551,125.685z"/><path fill="#64B5F6" d="M213.452,158.257c-0.538,2.066-0.604,4.234-0.189,6.329l5.82,29.964c0,0-10.184,5.82-17.459,0.727 l-10.832-26.574c-0.56-1.346-0.916-2.764-1.04-4.219l-2.677-30.313l2.532-21.118l35.623,0.175L213.452,158.257z"/><path fill="#1E88E5" d="M206.677,155.791c0.776,0.106,1.343,0.806,1.259,1.584c-0.246,2.265-0.102,5.508,0.235,7.211 l1.447,7.451c0.146,0.754-0.318,1.491-1.061,1.685l-14.208,3.71l-3.558-8.729c-0.56-1.346-0.916-2.764-1.04-4.219l-0.983-11.135 L206.677,155.791z"/><path fill="#1E88E5" d="M129.606,171.271l-16.731,16.731l-21.824-18.914l3.637-3.637c5.82-5.82,10.184,8.729,23.278-5.092 C117.967,160.359,121.604,158.904,129.606,171.271z"/><path fill="#3949AB" d="M117.24,183.638l-4.365,4.365l-21.824-18.914l3.637-3.637c2.362-2.362,4.485-1.368,7.049-0.278 c1.316,0.56,1.68,4.448,1.68,6.098c0,2.182,3.518,5.198,5.092,6.547C113.602,182.183,117.24,183.638,117.24,183.638z"/><g><path fill="#3949AB" d="M227.208,107.11c-0.647,1.637-1.979,6.118-1.979,6.118c-0.407,0.08-0.953,0.124-1.12,0.145 c-5.252,0.597-10.526,1.004-15.807,1.12c-6.183,0.138-12.607-0.065-18.695-1.44c-3.765-0.844-9.113-2.815-12.928-4.918 c0.505-1.03,0.794-2.298,0.976-2.975c0.305-1.12,0.604-2.233,0.909-3.354c3.353,2.728,7.493,4.437,11.741,5.449 c1.717,0.415,3.455,0.713,5.165,0.917c6.925,0.837,13.974,0.604,20.914,0.073c1.382-0.109,2.764-0.226,4.146-0.371 C222.764,107.663,224.99,107.401,227.208,107.11z"/></g><circle cx="206.152" cy="93.256" r="4.321" fill="#3949AB"/><path fill="none" stroke="#1E88E5" d="M205.989,93.434 c0,0,6.367,19.699,17.285,19.756c10.918,0.056,2.594-17.712,2.594-17.712"/><circle cx="192.876" cy="91.252" r="4.321" fill="#3949AB"/><path fill="#64B5F6" d="M219.81,84.705c0,0,6.751,24.042,7.398,22.405c-0.124,0.146,10.788-33.317,10.788-33.317"/><path fill="#1E88E5" d="M195.47,108.172l-0.048,5.852c-6.164,5.915-8.347,20.147-8.347,20.147s-3.637-1.403-3.637-6.547 c0-6.823,0.171-12.535,0.724-16.334l1.843-5.333C186.005,105.957,190.03,107.574,195.47,108.172z"/><polygon fill="#1E88E5" points="192.894 62.881 188.468 80.687 212.536 84.705 218.355 65.791"/><path fill="none" stroke="#F2F2F2" d="M243.452,44.331 c0,0-15.64-0.377-15.64,19.277c0,18.186,7.275,26.188,7.275,26.188"/><g><path fill="#3949AB" d="M234.126,43.234c-8.52,2.734-13.291,7.957-15.043,10.191c-3.654,0.366-23.123,2.294-29.197-2.262 c3.282-6.513,2.281-12.851,2.281-12.851c3.013,2.646,5.631,3.093,10.225,3.46c3.759,0.3,7.06,0.674,12.267-0.481 c6.79-6.332,17.802-4.711,17.802-4.711C232.911,38.722,234.126,43.234,234.126,43.234z"/><path fill="#64B5F6" d="M232.461,36.579c0,0-0.114,0.026-0.318,0.086c-0.066,0.018-0.132,0.036-0.198,0.055 c-0.078,0.023-0.162,0.046-0.246,0.068c-0.084,0.023-0.174,0.051-0.271,0.084c-0.974,0.281-1.917,0.611-2.821,0.967v0.006 c-3.328,1.279-8.232,3.614-12.244,7.365c-1.753,0.389-3.502,0.666-5.191,0.849c-3.325,0.369-6.422,0.38-8.915,0.181 c-3.357-0.268-5.551-1.189-7.663-2.698c-1.682-1.456-3.043-3.316-4.043-5.428c-1.621-3.384-2.328-7.412-2.003-11.475l1.339,0.377 l0.045-0.56c0.232-2.901,0.791-5.054,1.641-6.649l-2.793-3.431c3.123-10.126,12.917-17.181,23.921-16.302 c12.738,1.017,22.235,12.163,21.218,24.901c-0.185,2.312-0.701,4.515-1.506,6.571C232.129,33.304,232.214,35.038,232.461,36.579z"/><path fill="#616161" d="M225.603,26.073c0.163-2.043-5.932-6.643-14.993-10.891c-3.66-1.716-11.649-5.924-15.162-3.784 c-3.878,2.362-6.61,4.213-6.95,8.48c-0.093,1.168-0.101,1.27-0.21,2.627c-0.785,9.834,4.469,19.451,13.955,20.208 c9.049,0.723,19.144-3.853,22.824-9.927C225.067,32.787,225.49,27.489,225.603,26.073z"/><path fill="#3949AB" d="M225.44,28.117c-1.444-3.993-13.043-13.238-24.135-14.124s-12.813,5.956-12.813,5.956l0.291-3.643 c0,0,1.721-6.842,12.813-5.956c11.092,0.886,22.691,10.131,24.135,14.124L225.44,28.117z"/></g><circle cx="201.121" cy="73.762" r="5.948" fill="#3949AB"/><path fill="#64B5F6" d="M147.793,46.877l-3.637-8.729c0,0-1.273-2.91-2.182-2.91c-1.137,0-1.455,0.727-1.455,1.455 c0,2.182,1.524,4.251,1.864,5.35c1.046,3.38-0.409,6.289-0.409,6.289L147.793,46.877z"/><path fill="#64B5F6" d="M143.178,45.21l-0.234-6.644c-0.154-0.265-0.419-0.447-0.721-0.498l-2.543-0.424 c-0.844-0.141-1.703,0.135-2.308,0.74l-5.166,5.166c-0.639,0.639-0.926,1.713-0.776,2.539c0.068,0.372,4.968,1.825,6.723,2.243 c0.716,0.171,0.054-0.723,0.723-1.031L143.178,45.21z"/><path fill="none" stroke="#1E88E5" d="M192.894,91.194 c0,0-7.379,12.425-14.011,12.424c-3.771-0.001-2.419-5.997,1.253-9.617c4.149-4.09,6.379-2.807,6.379-2.807"/><polygon fill="#64B5F6" points="178.883 100.3 183.817 77.035 189.257 91.979"/><path fill="#303F9F" d="M189.985,90.524c0-2.386,5.278-3.593,2.892-3.593s-4.321,1.935-4.321,4.321 c0,0.53,0.095,1.038,0.27,1.507C189.257,91.252,189.985,92.91,189.985,90.524z"/><path fill="#1E88E5" d="M229.994,28.691c0-2.411-1.954-4.365-4.365-4.365c-1.455,0-2.91,1.954-2.91,4.365 s1.455,4.365,2.91,4.365C228.04,33.056,229.994,31.101,229.994,28.691z"/><path fill="#F2F2F2" d="M235.632,38.919l-1.506,4.315c0,0,5.704-2.009,8.085,4.854c0,0,3.094,1.464,3.842,2.307 c2.383-0.175,7.39-6.063,7.39-6.063l-12.949-7.937L235.632,38.919z"/><polygon fill="#F2F2F2" points="235.922 80.159 230.911 95.572 236.809 95.924 240.395 87.627"/></g></g></g><g transform="translate(197.318 617.99) scale(-0.692 -0.684) rotate(0 46.48843930635839 34.005847953216374)"><g id="Layer_14w1aNOLLYILcX1gjyOMZZu"><g><path fill="#EEE" d="M39.83,36.966c0.095,0.247,0.197,0.483,0.304,0.708L39.83,36.966z"/><path fill="#EEE" d="M47.443,25.276L47.443,25.276C47.432,25.287,47.43,25.289,47.443,25.276z"/><path fill="#F5F5F5" d="M85.569,1.942C82.679,1.158,80,0.998,80,0.998S78.224,0,75.662,0C68,0,61.272,10.297,59.525,12.367 c-2.225,2.637-8.955,10.713-14.88,15.67c2.769,6.051,7.655,5.874,0.865,9.241c-3.551,1.409-4.022,2.962-5.262,0.433l0.002,0.012 l-0.041-0.094c-0.107-0.224,2.086-1.417,1.991-1.661c0,0,9.245-7.93-0.375-5.452c-4.466,1.151-11.797,5.536-11.797,5.536 l-1.134,1.459c0,0-9.139,0.14-19.469,0.77c-4.737,0.289-6.291,3.04-6.291,3.04L0,45.481l29.119,11.791l0.913,3.664L48,65.998l6-2 l4.726-5.109c0,0,18.52-18.748,25.773-33.14c0,0,2.357-4.004,3.135-6.634c1.605-5.421,0.961-7.6,1.291-10.532 C89.45,3.926,87.098,2.356,85.569,1.942z"/><path fill="#EEE" d="M82.602,48.732c-4.263-4.162-3.961-5.505-3.25-8.956c0.606-2.942,3.092-8.675,5.094-14.085 c-7.821,12.932-14.71,17.972-25.721,33.199L55,65.498l35.875,1.5l1.704-4.559c0,0,0.846-1.897,0.203-3.754 C91.688,55.529,86.866,52.893,82.602,48.732z"/><path fill="#757575" d="M80,0.998c0,0,1.737,1.117,2.563,2.584c0.375,0.667,1.234,0.426,1.374,0.02 C84.125,3.054,82.366,0.996,80,0.998z"/><ellipse cx="72.5" cy="3.998" fill="#757575" rx="1.5" ry="1"/><ellipse cx="76.5" cy="4.998" fill="#757575" rx="1.5" ry="1"/><polygon fill="#424242" points="1.653 43.285 30.563 54.123 32.125 50.123 3.134 41.32"/><path fill="#FFF" d="M45.39,39.778c0,0,6.802-4.212,12.119-5.6c3.979-1.039,8.145,2.526,5.823,7.577 C61.024,46.778,54,52.998,54,52.998L45.39,39.778z"/><path fill="#B6B6B6" d="M56,45.998c0-3.877-3.625-7-7.5-7c-1.072,0-2.5,0.25-3.5,0.75c-3.266-0.186-2.917-0.723-4.703-0.76 c-1.133-2-3.392-3.99-6.297-3.99c-4,0-7,2.593-7,7c0,3.098,2,6,2,6v9l-2,4l21,7l6-4v-11C54,52.998,56,51.081,56,45.998z"/><path fill="#E0E0E0" d="M44.794,41.702c-1.135-0.946-2.951-0.802-4.205-0.361C38.82,41.963,38,42.667,38,42.667 l4.338,8.388c0,0,2.593-2.161,3.505-5.353C46.311,44.062,45.721,42.475,44.794,41.702z"/><path fill="#E0E0E0" d="M36.794,48.702c-1.135-0.946-2.951-0.802-4.205-0.361C30.82,48.963,30,49.667,30,49.667 l4.338,8.388c0,0,2.593-2.161,3.505-5.353C38.311,51.062,37.721,49.475,36.794,48.702z"/><ellipse cx="32" cy="53.998" fill="#FFF" rx="4" ry="5"/><ellipse cx="40" cy="46.998" fill="#FFF" rx="4" ry="5"/><path fill="#E0E0E0" d="M49.794,52.702c-1.135-0.946-2.951-0.802-4.205-0.361C43.82,52.963,43,53.667,43,53.667 l4.338,8.388c0,0,2.593-2.161,3.505-5.353C51.311,55.062,50.721,53.475,49.794,52.702z"/><ellipse cx="45" cy="57.998" fill="#FFF" rx="4" ry="5"/><polygon fill="#424242" points="56.561 62.682 58.726 58.889 92.579 62.439 91.631 64.975"/><path fill="#FFF" d="M51.714,31.693l-9.165-15.199c-0.324-0.538-1.065-0.661-1.553-0.259L38.367,18.4 c-0.261,0.215-0.396,0.541-0.362,0.872l1.928,18.758c0.101,0.983,0.915,1.75,1.923,1.812l2.467,0.152 c0.584,0.036,1.157-0.173,1.574-0.574l5.483-5.263C52.059,33.508,52.196,32.492,51.714,31.693z"/></g></g></g><g transform="translate(324.207 65.47) scale(-0.608 0.609) rotate(0 232.8453947368421 212.1510673234811)"><title>thought_bubble_l_4</title><g id="Layer_2vPtLROYloqgsVS73h8ztS" data-name="Layer 2"><g id="thought_bubble_l_4vPtLROYloqgsVS73h8ztS"><path fill="#fff" d="M466.063,190.1A103.036,103.036,0,0,0,374.169,87.68,64.1,64.1,0,0,0,274.8,55.6,68.075,68.075,0,0,0,144,44.531,64.065,64.065,0,0,0,42.8,107.755,87.091,87.091,0,0,0,72.876,268.666a68.052,68.052,0,0,0,117.6,60.009,68.05,68.05,0,0,0,85.887-3.655,68.077,68.077,0,0,0,105.439-33.6A103.052,103.052,0,0,0,466.063,190.1Z"/><path fill="#fff" d="M99,382.526C99,397.176,88.7,404,76,404s-23-6.824-23-21.474S63.3,356,76,356,99,367.876,99,382.526Z"/><path fill="#fff" d="M44,409c0,9.554-8.716,15-17,15s-15-4.45-15-14,6.716-17.3,15-17.3S44,399.446,44,409Z"/></g></g></g><g><path fill="#4C4C4C" stroke="#4C4C4C" d="M33.85 15.13L33.85 52.88L29.46 52.88L29.46 35.11L9.58 35.11L9.58 52.88L5.19 52.88L5.19 15.13L9.58 15.13L9.58 31.19L29.46 31.19L29.46 15.13L33.85 15.13ZM67.98 38.70L67.98 38.70Q67.98 45.62 64.49 49.51Q61.01 53.39 54.86 53.39L54.86 53.39Q51.07 53.39 48.12 51.61Q45.18 49.83 43.58 46.50Q41.98 43.17 41.98 38.70L41.98 38.70Q41.98 31.78 45.44 27.92Q48.90 24.06 55.04 24.06L55.04 24.06Q60.98 24.06 64.48 28.01Q67.98 31.96 67.98 38.70ZM46.42 38.70L46.42 38.70Q46.42 44.12 48.59 46.96Q50.76 49.80 54.97 49.80L54.97 49.80Q59.17 49.80 61.36 46.98Q63.54 44.15 63.54 38.70L63.54 38.70Q63.54 33.31 61.36 30.50Q59.17 27.70 54.91 27.70L54.91 27.70Q50.71 27.70 48.56 30.47Q46.42 33.23 46.42 38.70ZM88.66 53.39L88.66 53.39Q85.90 53.39 83.61 52.37Q81.33 51.35 79.78 49.23L79.78 49.23L79.47 49.23Q79.78 51.71 79.78 53.93L79.78 53.93L79.78 65.58L75.49 65.58L75.49 24.58L78.98 24.58L79.57 28.45L79.78 28.45Q81.43 26.13 83.62 25.09Q85.82 24.06 88.66 24.06L88.66 24.06Q94.29 24.06 97.35 27.91Q100.41 31.76 100.41 38.70L100.41 38.70Q100.41 45.67 97.29 49.53Q94.18 53.39 88.66 53.39ZM88.04 27.70L88.04 27.70Q83.70 27.70 81.77 30.10Q79.83 32.50 79.78 37.75L79.78 37.75L79.78 38.70Q79.78 44.66 81.77 47.23Q83.75 49.80 88.14 49.80L88.14 49.80Q91.81 49.80 93.89 46.83Q95.97 43.86 95.97 38.65L95.97 38.65Q95.97 33.36 93.89 30.53Q91.81 27.70 88.04 27.70ZM121.06 53.39L121.06 53.39Q118.30 53.39 116.01 52.37Q113.73 51.35 112.18 49.23L112.18 49.23L111.87 49.23Q112.18 51.71 112.18 53.93L112.18 53.93L112.18 65.58L107.89 65.58L107.89 24.58L111.38 24.58L111.97 28.45L112.18 28.45Q113.83 26.13 116.03 25.09Q118.22 24.06 121.06 24.06L121.06 24.06Q126.69 24.06 129.75 27.91Q132.81 31.76 132.81 38.70L132.81 38.70Q132.81 45.67 129.70 49.53Q126.59 53.39 121.06 53.39ZM120.44 27.70L120.44 27.70Q116.10 27.70 114.17 30.10Q112.23 32.50 112.18 37.75L112.18 37.75L112.18 38.70Q112.18 44.66 114.17 47.23Q116.15 49.80 120.54 49.80L120.54 49.80Q124.21 49.80 126.29 46.83Q128.37 43.86 128.37 38.65L128.37 38.65Q128.37 33.36 126.29 30.53Q124.21 27.70 120.44 27.70ZM144.58 12.70L144.58 52.88L140.29 52.88L140.29 12.70L144.58 12.70ZM174.24 52.88L171.07 52.88L170.22 48.85L170.01 48.85Q167.89 51.51 165.79 52.45Q163.69 53.39 160.54 53.39L160.54 53.39Q156.33 53.39 153.94 51.22Q151.55 49.05 151.55 45.05L151.55 45.05Q151.55 36.48 165.26 36.07L165.26 36.07L170.06 35.91L170.06 34.16Q170.06 30.83 168.63 29.24Q167.20 27.65 164.05 27.65L164.05 27.65Q160.51 27.65 156.04 29.82L156.04 29.82L154.73 26.54Q156.82 25.40 159.31 24.76Q161.80 24.11 164.30 24.11L164.30 24.11Q169.37 24.11 171.81 26.36Q174.24 28.61 174.24 33.56L174.24 33.56L174.24 52.88ZM161.39 49.85L161.39 49.85Q165.39 49.85 167.67 47.66Q169.96 45.47 169.96 41.52L169.96 41.52L169.96 38.96L165.67 39.14Q160.56 39.32 158.30 40.73Q156.04 42.13 156.04 45.10L156.04 45.10Q156.04 47.43 157.45 48.64Q158.86 49.85 161.39 49.85ZM196.19 50.14L196.19 50.14Q196.19 48.41 196.98 47.52Q197.76 46.63 199.24 46.63L199.24 46.63Q200.73 46.63 201.57 47.52Q202.41 48.41 202.41 50.14L202.41 50.14Q202.41 51.82 201.56 52.72Q200.71 53.62 199.24 53.62L199.24 53.62Q197.92 53.62 197.05 52.81Q196.19 52.00 196.19 50.14ZM210.26 50.14L210.26 50.14Q210.26 48.41 211.05 47.52Q211.84 46.63 213.31 46.63L213.31 46.63Q214.80 46.63 215.64 47.52Q216.48 48.41 216.48 50.14L216.48 50.14Q216.48 51.82 215.63 52.72Q214.78 53.62 213.31 53.62L213.31 53.62Q211.99 53.62 211.13 52.81Q210.26 52.00 210.26 50.14ZM224.33 50.14L224.33 50.14Q224.33 48.41 225.12 47.52Q225.91 46.63 227.38 46.63L227.38 46.63Q228.88 46.63 229.71 47.52Q230.55 48.41 230.55 50.14L230.55 50.14Q230.55 51.82 229.70 52.72Q228.85 53.62 227.38 53.62L227.38 53.62Q226.06 53.62 225.20 52.81Q224.33 52.00 224.33 50.14Z" transform="translate(71.613 131.77) scale(1 1) rotate(0 126.23 51.98)"/></g></svg>