<?xml version="1.0" encoding="iso-8859-1" ?>
              <svg
                version="1.1"
                xmlns="http://www.w3.org/2000/svg"
                xmlns:xlink="http://www.w3.org/1999/xlink"
                viewBox="0 0 1188 792"
                width="1188"
                height="792"
              >
                <g transform="translate(287.458 145.477) scale(0.729 0.729) rotate(0 399.90397805212615 299.93141289437585)">   <defs>     <radialGradient id="radial-gradientduxpetDL8CcB8VtHD-wYu" cx="731.1" cy="-5773.78" r="282.82" gradientTransform="matrix(0.47, 0, 0, -0.49, 161.55, -2556.36)" gradientUnits="userSpaceOnUse">       <stop offset="0" stop-color="rgb(244,244,244)"/>       <stop offset="0.36" stop-color="rgb(242,242,242)" stop-opacity="0.59"/>       <stop offset="0.67" stop-color="rgb(240,240,240)" stop-opacity="0.27"/>       <stop offset="0.89" stop-color="rgb(238,238,238)" stop-opacity="0.08"/>       <stop offset="1" stop-color="rgb(238,238,238)" stop-opacity="0"/>     </radialGradient>     <radialGradient id="radial-gradient-2duxpetDL8CcB8VtHD-wYu" cx="400" cy="-2855.94" r="400" gradientTransform="matrix(1, 0, 0, -1, 0, -2388)" gradientUnits="userSpaceOnUse">       <stop offset="0" stop-color="rgb(245,245,245)"/>       <stop offset="1" stop-color="rgb(255,255,255)"/>     </radialGradient>     <radialGradient id="radial-gradient-3duxpetDL8CcB8VtHD-wYu" cx="400" cy="-2869.94" r="400.1" gradientTransform="matrix(1, 0, 0, -1, 0, -2388)" gradientUnits="userSpaceOnUse">       <stop offset="0" stop-color="rgb(236,236,236)"/>       <stop offset="1" stop-color="rgb(255,255,255)"/>     </radialGradient>     <radialGradient id="radial-gradient-4duxpetDL8CcB8VtHD-wYu" cx="400" cy="-2883.44" r="400.01" gradientTransform="matrix(1, 0, 0, -1, 0, -2388)" gradientUnits="userSpaceOnUse">       <stop offset="0" stop-color="rgb(223,223,223)"/>       <stop offset="1" stop-color="rgb(255,255,255)"/>     </radialGradient>     <radialGradient id="radial-gradient-5duxpetDL8CcB8VtHD-wYu" cx="-102.59" cy="2771.9" r="283.02" gradientTransform="translate(544.23 -2713.06) scale(1.34 1.09)" gradientUnits="userSpaceOnUse">       <stop offset="0" stop-color="rgb(255,255,255)" stop-opacity="0"/>       <stop offset="0.13" stop-color="rgb(255,255,255)" stop-opacity="0.01"/>       <stop offset="0.26" stop-color="rgb(255,255,255)" stop-opacity="0.06"/>       <stop offset="0.38" stop-color="rgb(255,255,255)" stop-opacity="0.14"/>       <stop offset="0.51" stop-color="rgb(255,255,255)" stop-opacity="0.24"/>       <stop offset="0.63" stop-color="rgb(255,255,255)" stop-opacity="0.38"/>       <stop offset="0.75" stop-color="rgb(255,255,255)" stop-opacity="0.55"/>       <stop offset="0.87" stop-color="rgb(255,255,255)" stop-opacity="0.75"/>       <stop offset="0.99" stop-color="rgb(255,255,255)" stop-opacity="0.97"/>       <stop offset="1" stop-color="rgb(255,255,255)"/>     </radialGradient>   </defs>   <title>razobr</title>   <g>     <rect width="800" height="600" fill=" #fff"/>     <g>       <circle cx="517" cy="274" r="168" fill=" url(#radial-gradient)"/>       <ellipse cx="517" cy="274" rx="35" ry="33" fill=" #fff"/>     </g>     <g>       <path d="M668.28,351s11.42-43,6.48-58-10.4-13.46-10.4-13.46L651,351Z" fill=" #b7b7b7"/>       <path d="M630,266s13-38,5-44a15,15,0,0,0-9-3,18,18,0,0,0-10,3s-7,9-7,44Z" fill=" #e0e0e0"/>       <path d="M615,266a70.22,70.22,0,0,1-3-20,74.5,74.5,0,0,1,4-24s-4,2-7.73,11.92C605.2,242.06,604,253,604,266Z" fill=" #eee"/>       <path d="M626,256c1-1,3-6,3-9,0-4.2-.84-8.69,0-15.41.74-5.93,2-9.59,5.5-9.59a8.23,8.23,0,0,1,4.18,1.57C645,227.57,654,241.94,654,261s-5,90-5,90H609a390.1,390.1,0,0,1-4-53c0-28,14-37,14-37A30.6,30.6,0,0,0,626,256Z" fill=" #cecece"/>       <path d="M624,351c-11.38-26.15-15-48.83-15-64,0-19,10-26,10-26s-10,2.68-11,3c-11.36,3.65-19.31,14.18-21,26a149.26,149.26,0,0,0-2,21v40Z" fill=" #e0e0e0"/>       <path d="M649.26,260.75h0a19.67,19.67,0,0,1,15.19,18.31v.5L657,351H643l2.3-31.13Z" fill=" #cecece"/>       <path d="M681,351s13-21,6-36c-3.45-7.41-7.13-10-10-10-4,0-9,0-9,7,0,4,1,9,1,19a35.84,35.84,0,0,1-6,20Z" fill=" #e0e0e0"/>       <path d="M576,305.91S572,308,570,318s-10,33-10,33l16.53-.05S584,339,584,320C584,304,576,305.91,576,305.91Z" fill=" #f5f5f5"/>       <path d="M587,351s3-14.87,3-28c0-11-1.53-16.53-3-18-1-1-2.76-1-4-1a17.45,17.45,0,0,0-7,1.91s3-.91,3,10.09-7.1,35-7.1,35Z" fill=" #d1d1d1"/>       <path d="M632,351a261.74,261.74,0,0,0,1-28c-.3-12.49-2.14-25.41-4-31s-3-9.7-3-12c0-2.64,1.66-4.26,7-8,4.65-3.26,7.47-5.11,10-5,2.91.12,5.33,2.72,8,7a18.15,18.15,0,0,1,2,9c.2,20.9-8,68-8,68Z" fill=" #e0e0e0"/>     </g>     <g>       <path d="M375,302s-.75-13.23-1-16c-1-11-4.33-18.58-15.29-20.15,0,0-4.71-14.81-16.71-19.81,0-24.13-7.31-32.88-7.31-32.88s-7.9-2.63-15.81,0-10.36,12.38-10.36,12.38l3.77,20.56h0a25.79,25.79,0,0,0-18.29,24l-.11,4.9L295,350.91h70C369,325,375,302,375,302Z" fill=" #e0e0e0"/>       <path d="M399.26,347.16S396,326,394,316c-1.87-9.34-12.49-12.17-19-14-5,17-10,49-10,49h35Z" fill=" #f5f5f5"/>       <path d="M347,268V233l2.32.88a13,13,0,0,1,8.41,11.18l2,25.9Z" fill=" #f8f8f8"/>       <path d="M279,350.94l12.21-79.85,1.55-9.49A19.76,19.76,0,0,1,303.67,247l5.33-2V350.9Z" fill=" #d9d9d9"/>       <path d="M274.08,309.25,275.56,290a21.3,21.3,0,0,1,15.65-18.91h0l-1.32,35.53.11,44.32H265Z" fill=" #cecece"/>       <path d="M312.29,217.14l6.59-3.94s-6.59,21.06,0,40.8h8.17a21.34,21.34,0,0,1,21.05,17.8c.3,1.78,10.9,79.2,10.9,79.2H302l6-103.89v-15C308,225.07,309.62,220.32,312.29,217.14Z" fill=" #cecece"/>       <path d="M336.23,256A21.41,21.41,0,0,1,347,267.72V231.07A16.86,16.86,0,0,0,341.21,219l-6.52-5.79A114.62,114.62,0,0,1,338,240.06,76.33,76.33,0,0,1,336.23,256Z" fill=" #eee"/>       <path d="M383,350.94V307c0-3.2-.65-11-5-13-1.66-.75-5.17-2.35-7-3a8,8,0,0,1-5.26-6.28s-6-30.75-38.95-30.75c0,0,18.21,36,18.21,64,0,22.37-2,33-2,33Z" fill=" #f0f0f0"/>     </g>     <g>       <path d="M210,346l-1-200H195c-4,0-17.28,2.11-19,15-2,15-2,42-2,42l7,143Z" fill=" #afacac"/>       <path d="M156,346s-11-14-11-39a186.92,186.92,0,0,1,6-46c0-6-1-17.29-1-17.29a19.14,19.14,0,0,1,5.28-13.77S159,227,161,227c1.14,0,8.8,34.81,11,68,1.67,25.19-1.87,51-1.87,51Z" fill=" #b7b7b7"/>       <path d="M214,224c0-70-2.76-90.19-2.76-90.19A26.72,26.72,0,0,1,222,132c4,0,13,4.95,13,4.95s14,7.05,14,33v41h-6S222,216.58,214,224Z" fill=" #e0e0e0"/>       <path d="M243,211s1-23,1-37c0-31-9-37-9-37s14-.53,19,16.05c3,10,4,29.68,4,38v20Z" fill=" #eee"/>       <path d="M208,346s11-5,11-29c0-17.92-3.81-39.21-4-60-.26-29.5,11.86-54,26-54h11c9,0,13,5,22,10,8.05,4.47,16,13.14,16,22,0,6-2,20-2,28s-1,83-1,83Z" fill=" #f5f5f5"/>       <path d="M137,325c-2.72-12.72-4-47.93-4-47.93,0-12.9,18-16.05,18-16.05s-6,51,5,85C156,346,139.72,337.7,137,325Z" fill=" #e0e0e0"/>       <path d="M297,268c10,0,16.9,8.65,20,18,3.62,10.91,10,60,10,60H287s-1-27-1-48S290.92,268,297,268Z" fill=" #f5f5f5"/>       <path d="M247,346c9-2,19.8-9.78,22-23,4-24,2-28,3-42,.34-4.79,6-18,14-18a17.62,17.62,0,0,1,12,5c-3,5-6,15-6,28,0,27.78,2,50,2,50Z" fill=" #e0e0e0"/>       <path d="M195,146h14l-10.74,62.59S197,200,195,186c-1.38-9.65-6-17-6-28C189,156,188,146,195,146Z" fill=" #e0e0e0"/>       <path d="M286,263s-9,6-9,30a257.31,257.31,0,0,1-2,32,176.29,176.29,0,0,1-4,21H247s2-4,7-21c1.22-4.14,1-4,6-25,3.94-16.54,6-37,22-37Z" fill=" #cecece"/>       <path d="M241,203c-13,0-17.49,9-22,9,0,0-1-13.94-1-46,0-20-5.77-32.61-5.77-32.61S198,136,198,148c0,0,.26,39.19.26,60.59C198.26,228.26,195,269,191,269c-1,0-6-13.16-6-27,0-25-10.22-42.14-10.22-42.14A22.72,22.72,0,0,0,157,222c0,10.95,6.45,38.64,10,68,3.25,26.86,3,56,3,56h55c-.53-26-5-58-5-90C220,230.73,231,209,241,203Z" fill=" #cecece"/>     </g>     <g>       <path d="M800,337.94a219.41,219.41,0,0,1-22.92-1.11,163.88,163.88,0,0,0-34.16,0,237.19,237.19,0,0,1-45.84,0,163.88,163.88,0,0,0-34.16,0,237.19,237.19,0,0,1-45.84,0,163.88,163.88,0,0,0-34.16,0,237.19,237.19,0,0,1-45.84,0,163.88,163.88,0,0,0-34.16,0,237.19,237.19,0,0,1-45.84,0,163.88,163.88,0,0,0-34.16,0,237.19,237.19,0,0,1-45.84,0,163.88,163.88,0,0,0-34.16,0,237.19,237.19,0,0,1-45.84,0,163.88,163.88,0,0,0-34.16,0,237.19,237.19,0,0,1-45.84,0,163.88,163.88,0,0,0-34.16,0A219.41,219.41,0,0,1,160,337.94a219.41,219.41,0,0,1-22.92-1.11,163.88,163.88,0,0,0-34.16,0A219.41,219.41,0,0,1,80,337.94a219.41,219.41,0,0,1-22.92-1.11,163.88,163.88,0,0,0-34.16,0A219.41,219.41,0,0,1,0,337.94v262H800Z" fill=" url(#radial-gradient-2)"/>       <path d="M800,365.94a219.41,219.41,0,0,1-22.92-1.11,163.88,163.88,0,0,0-34.16,0,237.19,237.19,0,0,1-45.84,0,163.88,163.88,0,0,0-34.16,0,237.19,237.19,0,0,1-45.84,0,163.88,163.88,0,0,0-34.16,0,237.19,237.19,0,0,1-45.84,0,163.88,163.88,0,0,0-34.16,0,237.19,237.19,0,0,1-45.84,0,163.88,163.88,0,0,0-34.16,0,237.19,237.19,0,0,1-45.84,0,163.88,163.88,0,0,0-34.16,0,237.19,237.19,0,0,1-45.84,0,163.88,163.88,0,0,0-34.16,0,237.19,237.19,0,0,1-45.84,0,163.88,163.88,0,0,0-34.16,0A219.41,219.41,0,0,1,160,365.94a219.41,219.41,0,0,1-22.92-1.11,163.88,163.88,0,0,0-34.16,0A219.41,219.41,0,0,1,80,365.94a219.41,219.41,0,0,1-22.92-1.11,163.88,163.88,0,0,0-34.16,0A219.41,219.41,0,0,1,0,365.94v234H800Z" fill=" url(#radial-gradient-3)"/>       <path d="M800,392.94a219.41,219.41,0,0,1-22.92-1.11,163.88,163.88,0,0,0-34.16,0,237.19,237.19,0,0,1-45.84,0,163.88,163.88,0,0,0-34.16,0,237.19,237.19,0,0,1-45.84,0,163.88,163.88,0,0,0-34.16,0,237.19,237.19,0,0,1-45.84,0,163.88,163.88,0,0,0-34.16,0,237.19,237.19,0,0,1-45.84,0,163.88,163.88,0,0,0-34.16,0,237.19,237.19,0,0,1-45.84,0,163.88,163.88,0,0,0-34.16,0,237.19,237.19,0,0,1-45.84,0,163.88,163.88,0,0,0-34.16,0,237.19,237.19,0,0,1-45.84,0,163.88,163.88,0,0,0-34.16,0A219.41,219.41,0,0,1,160,392.94a219.41,219.41,0,0,1-22.92-1.11,163.88,163.88,0,0,0-34.16,0A219.41,219.41,0,0,1,80,392.94a219.41,219.41,0,0,1-22.92-1.11,163.88,163.88,0,0,0-34.16,0A219.41,219.41,0,0,1,0,392.94v207H800Z" fill=" url(#radial-gradient-4)"/>       <path d="M800,420.94s-24.87-4-79-4c-37.89,0-74.18,4-98,4s-52.29-8-101-8-95.43,8-127,8c-67,0-110.11-8-148-8s-180,8-247,8v179H800Z" fill=" #fff"/>       <rect width="800" height="600" fill=" url(#radial-gradient-5)"/>     </g>     <path d="M436.29,168.34c-33.05-13.1-38.29,23.6-38.29,23.6,14-22.13,33.27-16.87,33.27-16.87l-4,8.66c10.33-2.85,17.25-10.7,17.25-10.7,7.05-20,36.44-16.81,36.44-16.81C449.11,141.82,436.29,168.34,436.29,168.34Z" fill=" #eee"/>     <path d="M490.42,88.21C475.18,76.43,466,93.6,466,93.6c11.28-8.55,20.17-2,20.17-2L483,94.83c5.94.61,9.48-1.49,9.48-1.49C499,85.55,515,92,515,92,499.6,76.43,490.42,88.21,490.42,88.21Z" fill=" #eee"/>     <path d="M568.34,203.81C569.08,184.73,550,187,550,187c13.35,4.32,13.18,15.26,13.18,15.26l-4.43-.76c2.92,5.18,6.64,6.87,6.64,6.87,10,.86,14,17.55,14,17.55C583.1,204.57,568.34,203.81,568.34,203.81Z" fill=" #eee"/>   </g> </g><g transform="translate(524.14 420.985) scale(1 1) rotate(0 105.43 41)"><path fill="#5a5a5a" stroke="#5a5a5a" d="M10.78 20.35L10.78 13.92L3.60 13.92L3.60 20.35L1.89 20.35L1.89 6.14L3.60 6.14L3.60 12.41L10.78 12.41L10.78 6.14L12.49 6.14L12.49 20.35L10.78 20.35ZM20.06 20.59L20.06 20.59Q18.98 20.59 18.12 20.20Q17.25 19.82 16.63 19.09Q16.01 18.37 15.68 17.37Q15.34 16.36 15.34 15.10L15.34 15.10Q15.34 13.86 15.68 12.84Q16.01 11.82 16.63 11.10Q17.25 10.38 18.12 9.99Q18.98 9.60 20.06 9.60L20.06 9.60Q21.12 9.60 21.95 9.99Q22.79 10.38 23.38 11.06Q23.97 11.74 24.28 12.68Q24.60 13.61 24.60 14.73L24.60 14.73L24.60 15.50L17.05 15.50L17.05 15.99Q17.05 16.66 17.26 17.24Q17.48 17.82 17.87 18.25Q18.27 18.68 18.85 18.92Q19.43 19.17 20.16 19.17L20.16 19.17Q21.16 19.17 21.90 18.70Q22.65 18.23 23.05 17.36L23.05 17.36L24.21 18.19Q23.70 19.27 22.63 19.93Q21.55 20.59 20.06 20.59ZM20.06 10.97L20.06 10.97Q19.39 10.97 18.84 11.20Q18.29 11.43 17.89 11.86Q17.50 12.29 17.27 12.87Q17.05 13.45 17.05 14.14L17.05 14.14L17.05 14.28L22.85 14.28L22.85 14.06Q22.85 12.66 22.09 11.81Q21.32 10.97 20.06 10.97ZM32.90 7.39L32.90 7.39Q32.37 7.39 32.14 7.13Q31.90 6.88 31.90 6.47L31.90 6.47L31.90 6.21Q31.90 5.80 32.14 5.54Q32.37 5.29 32.90 5.29L32.90 5.29Q33.43 5.29 33.66 5.54Q33.90 5.80 33.90 6.21L33.90 6.21L33.90 6.47Q33.90 6.88 33.66 7.13Q33.43 7.39 32.90 7.39ZM32.09 20.35L32.09 9.85L33.71 9.85L33.71 20.35L32.09 20.35ZM40.33 20.59L40.33 20.59Q38.86 20.59 37.87 20.03Q36.89 19.47 36.18 18.54L36.18 18.54L37.34 17.60Q37.95 18.37 38.70 18.79Q39.45 19.21 40.45 19.21L40.45 19.21Q41.49 19.21 42.07 18.76Q42.65 18.31 42.65 17.50L42.65 17.50Q42.65 16.89 42.25 16.45Q41.85 16.01 40.81 15.85L40.81 15.85L39.98 15.73Q39.25 15.63 38.64 15.41Q38.03 15.20 37.57 14.84Q37.11 14.49 36.86 13.96Q36.60 13.43 36.60 12.70L36.60 12.70Q36.60 11.92 36.89 11.34Q37.17 10.76 37.67 10.38Q38.17 9.99 38.86 9.80Q39.55 9.60 40.35 9.60L40.35 9.60Q41.63 9.60 42.49 10.05Q43.36 10.50 44.01 11.29L44.01 11.29L42.93 12.27Q42.58 11.78 41.91 11.38Q41.24 10.99 40.22 10.99L40.22 10.99Q39.21 10.99 38.69 11.42Q38.17 11.86 38.17 12.61L38.17 12.61Q38.17 13.39 38.69 13.73Q39.21 14.08 40.18 14.24L40.18 14.24L41.00 14.36Q42.75 14.63 43.48 15.37Q44.21 16.11 44.21 17.31L44.21 17.31Q44.21 18.84 43.17 19.72Q42.14 20.59 40.33 20.59ZM53.59 20.35L50.78 9.85L52.37 9.85L53.49 14.38L54.61 18.98L54.65 18.98L55.93 14.38L57.25 9.85L58.70 9.85L60.06 14.38L61.36 18.98L61.40 18.98L62.48 14.38L63.62 9.85L65.15 9.85L62.36 20.35L60.35 20.35L58.88 15.30L57.97 12.11L57.93 12.11L57.03 15.30L55.57 20.35L53.59 20.35ZM75.87 20.35L74.96 20.35Q74.04 20.35 73.64 19.86Q73.25 19.37 73.14 18.64L73.14 18.64L73.04 18.64Q72.70 19.61 71.90 20.10Q71.11 20.59 70.01 20.59L70.01 20.59Q68.34 20.59 67.42 19.74Q66.49 18.88 66.49 17.42L66.49 17.42Q66.49 15.93 67.58 15.14Q68.67 14.34 70.97 14.34L70.97 14.34L73.04 14.34L73.04 13.31Q73.04 12.19 72.43 11.60Q71.82 11.01 70.56 11.01L70.56 11.01Q69.60 11.01 68.96 11.43Q68.32 11.86 67.90 12.57L67.90 12.57L66.92 11.66Q67.35 10.80 68.28 10.20Q69.22 9.60 70.64 9.60L70.64 9.60Q72.55 9.60 73.61 10.54Q74.67 11.48 74.67 13.14L74.67 13.14L74.67 18.92L75.87 18.92L75.87 20.35ZM70.28 19.21L70.28 19.21Q70.89 19.21 71.40 19.06Q71.90 18.92 72.27 18.66Q72.64 18.39 72.84 18.05Q73.04 17.70 73.04 17.29L73.04 17.29L73.04 15.56L70.89 15.56Q69.48 15.56 68.84 15.97Q68.20 16.38 68.20 17.15L68.20 17.15L68.20 17.58Q68.20 18.35 68.76 18.78Q69.32 19.21 70.28 19.21ZM82.54 20.35L80.51 20.35Q79.66 20.35 79.22 19.87Q78.78 19.39 78.78 18.62L78.78 18.62L78.78 11.27L77.05 11.27L77.05 9.85L78.03 9.85Q78.56 9.85 78.75 9.63Q78.94 9.42 78.94 8.89L78.94 8.89L78.94 6.94L80.41 6.94L80.41 9.85L82.71 9.85L82.71 11.27L80.41 11.27L80.41 18.92L82.54 18.92L82.54 20.35ZM89.16 20.59L89.16 20.59Q88.06 20.59 87.18 20.20Q86.31 19.82 85.71 19.11Q85.11 18.39 84.79 17.38Q84.48 16.36 84.48 15.10L84.48 15.10Q84.48 13.84 84.79 12.82Q85.11 11.80 85.71 11.09Q86.31 10.38 87.18 9.99Q88.06 9.60 89.16 9.60L89.16 9.60Q90.72 9.60 91.67 10.29Q92.62 10.97 93.08 12.07L93.08 12.07L91.72 12.76Q91.44 11.94 90.78 11.50Q90.13 11.05 89.16 11.05L89.16 11.05Q88.42 11.05 87.88 11.28Q87.33 11.52 86.96 11.93Q86.59 12.35 86.41 12.93Q86.23 13.51 86.23 14.20L86.23 14.20L86.23 15.99Q86.23 17.38 86.97 18.26Q87.71 19.15 89.16 19.15L89.16 19.15Q91.13 19.15 92.01 17.31L92.01 17.31L93.19 18.11Q92.68 19.25 91.67 19.92Q90.66 20.59 89.16 20.59ZM95.48 20.35L95.48 5.29L97.11 5.29L97.11 11.56L97.19 11.56Q97.58 10.66 98.28 10.13Q98.98 9.60 100.16 9.60L100.16 9.60Q101.79 9.60 102.74 10.65Q103.68 11.70 103.68 13.61L103.68 13.61L103.68 20.35L102.06 20.35L102.06 13.90Q102.06 11.07 99.68 11.07L99.68 11.07Q99.19 11.07 98.73 11.19Q98.27 11.31 97.91 11.56Q97.54 11.80 97.33 12.18Q97.11 12.55 97.11 13.06L97.11 13.06L97.11 20.35L95.48 20.35ZM107.86 7.39L107.86 7.39Q107.33 7.39 107.09 7.13Q106.86 6.88 106.86 6.47L106.86 6.47L106.86 6.21Q106.86 5.80 107.09 5.54Q107.33 5.29 107.86 5.29L107.86 5.29Q108.38 5.29 108.62 5.54Q108.85 5.80 108.85 6.21L108.85 6.21L108.85 6.47Q108.85 6.88 108.62 7.13Q108.38 7.39 107.86 7.39ZM107.04 20.35L107.04 9.85L108.67 9.85L108.67 20.35L107.04 20.35ZM113.76 20.35L112.13 20.35L112.13 9.85L113.76 9.85L113.76 11.56L113.84 11.56Q114.22 10.66 114.93 10.13Q115.63 9.60 116.81 9.60L116.81 9.60Q118.44 9.60 119.38 10.65Q120.33 11.70 120.33 13.61L120.33 13.61L120.33 20.35L118.70 20.35L118.70 13.90Q118.70 11.07 116.32 11.07L116.32 11.07Q115.83 11.07 115.37 11.19Q114.92 11.31 114.55 11.56Q114.18 11.80 113.97 12.18Q113.76 12.55 113.76 13.06L113.76 13.06L113.76 20.35ZM132.54 21.51L132.54 21.51Q132.54 23.13 131.26 23.90Q129.99 24.66 127.45 24.66L127.45 24.66Q124.99 24.66 123.91 23.99Q122.83 23.32 122.83 22.08L122.83 22.08Q122.83 21.22 123.28 20.74Q123.73 20.26 124.50 20.04L124.50 20.04L124.50 19.82Q123.56 19.37 123.56 18.35L123.56 18.35Q123.56 17.56 124.07 17.14Q124.58 16.72 125.37 16.52L125.37 16.52L125.37 16.44Q124.44 15.99 123.92 15.16Q123.40 14.32 123.40 13.23L123.40 13.23Q123.40 12.43 123.68 11.76Q123.97 11.09 124.49 10.61Q125.01 10.13 125.73 9.87Q126.45 9.60 127.35 9.60L127.35 9.60Q128.47 9.60 129.34 10.01L129.34 10.01L129.34 9.83Q129.34 9.22 129.63 8.82Q129.91 8.42 130.56 8.42L130.56 8.42L132.13 8.42L132.13 9.85L130.13 9.85L130.13 10.52Q130.70 11.01 131.02 11.69Q131.34 12.37 131.34 13.23L131.34 13.23Q131.34 14.02 131.05 14.69Q130.77 15.36 130.25 15.84Q129.73 16.32 129.00 16.58Q128.26 16.85 127.37 16.85L127.37 16.85Q126.86 16.85 126.35 16.74L126.35 16.74Q125.82 16.89 125.39 17.16Q124.97 17.44 124.97 17.93L124.97 17.93Q124.97 18.39 125.41 18.56Q125.86 18.72 126.57 18.72L126.57 18.72L128.81 18.72Q130.77 18.72 131.65 19.46Q132.54 20.20 132.54 21.51ZM131.01 21.63L131.01 21.63Q131.01 21.00 130.53 20.62Q130.05 20.24 128.83 20.24L128.83 20.24L125.33 20.24Q124.36 20.69 124.36 21.67L124.36 21.67Q124.36 22.36 124.88 22.85Q125.39 23.34 126.64 23.34L126.64 23.34L128.14 23.34Q129.50 23.34 130.26 22.91Q131.01 22.48 131.01 21.63ZM127.37 15.54L127.37 15.54Q128.41 15.54 129.02 15.05Q129.63 14.55 129.63 13.51L129.63 13.51L129.63 12.94Q129.63 11.90 129.02 11.40Q128.41 10.91 127.37 10.91L127.37 10.91Q126.33 10.91 125.72 11.40Q125.11 11.90 125.11 12.94L125.11 12.94L125.11 13.51Q125.11 14.55 125.72 15.05Q126.33 15.54 127.37 15.54ZM143.20 20.59L143.20 20.59Q142.14 20.59 141.26 20.20Q140.39 19.82 139.77 19.09Q139.15 18.37 138.80 17.37Q138.46 16.36 138.46 15.10L138.46 15.10Q138.46 13.86 138.80 12.84Q139.15 11.82 139.77 11.10Q140.39 10.38 141.26 9.99Q142.14 9.60 143.20 9.60L143.20 9.60Q144.25 9.60 145.12 9.99Q145.98 10.38 146.62 11.10Q147.25 11.82 147.59 12.84Q147.94 13.86 147.94 15.10L147.94 15.10Q147.94 16.36 147.59 17.37Q147.25 18.37 146.62 19.09Q145.98 19.82 145.12 20.20Q144.25 20.59 143.20 20.59ZM143.20 19.15L143.20 19.15Q144.52 19.15 145.35 18.33Q146.19 17.52 146.19 15.85L146.19 15.85L146.19 14.34Q146.19 12.68 145.35 11.86Q144.52 11.05 143.20 11.05L143.20 11.05Q141.87 11.05 141.04 11.86Q140.21 12.68 140.21 14.34L140.21 14.34L140.21 15.85Q140.21 17.52 141.04 18.33Q141.87 19.15 143.20 19.15ZM157.09 20.35L157.09 18.64L157.01 18.64Q156.85 19.00 156.62 19.36Q156.38 19.72 156.04 19.99Q155.69 20.26 155.20 20.43Q154.71 20.59 154.06 20.59L154.06 20.59Q152.43 20.59 151.48 19.54Q150.52 18.49 150.52 16.58L150.52 16.58L150.52 9.85L152.15 9.85L152.15 16.30Q152.15 19.13 154.55 19.13L154.55 19.13Q155.04 19.13 155.50 19.00Q155.95 18.88 156.31 18.64Q156.67 18.39 156.88 18.02Q157.09 17.64 157.09 17.11L157.09 17.11L157.09 9.85L158.72 9.85L158.72 20.35L157.09 20.35ZM166.53 20.35L164.50 20.35Q163.64 20.35 163.21 19.87Q162.77 19.39 162.77 18.62L162.77 18.62L162.77 11.27L161.04 11.27L161.04 9.85L162.02 9.85Q162.55 9.85 162.74 9.63Q162.93 9.42 162.93 8.89L162.93 8.89L162.93 6.94L164.40 6.94L164.40 9.85L166.70 9.85L166.70 11.27L164.40 11.27L164.40 18.92L166.53 18.92L166.53 20.35ZM174.69 20.35L174.69 11.27L172.98 11.27L172.98 9.85L174.69 9.85L174.69 7.73Q174.69 6.63 175.26 5.96Q175.83 5.29 176.99 5.29L176.99 5.29L178.58 5.29L178.58 6.71L176.32 6.71L176.32 9.85L178.58 9.85L178.58 11.27L176.32 11.27L176.32 20.35L174.69 20.35ZM184.60 20.59L184.60 20.59Q183.54 20.59 182.67 20.20Q181.79 19.82 181.17 19.09Q180.55 18.37 180.21 17.37Q179.86 16.36 179.86 15.10L179.86 15.10Q179.86 13.86 180.21 12.84Q180.55 11.82 181.17 11.10Q181.79 10.38 182.67 9.99Q183.54 9.60 184.60 9.60L184.60 9.60Q185.66 9.60 186.52 9.99Q187.39 10.38 188.02 11.10Q188.65 11.82 189.00 12.84Q189.34 13.86 189.34 15.10L189.34 15.10Q189.34 16.36 189.00 17.37Q188.65 18.37 188.02 19.09Q187.39 19.82 186.52 20.20Q185.66 20.59 184.60 20.59ZM184.60 19.15L184.60 19.15Q185.92 19.15 186.76 18.33Q187.59 17.52 187.59 15.85L187.59 15.85L187.59 14.34Q187.59 12.68 186.76 11.86Q185.92 11.05 184.60 11.05L184.60 11.05Q183.28 11.05 182.44 11.86Q181.61 12.68 181.61 14.34L181.61 14.34L181.61 15.85Q181.61 17.52 182.44 18.33Q183.28 19.15 184.60 19.15ZM193.66 20.35L192.03 20.35L192.03 9.85L193.66 9.85L193.66 11.78L193.76 11.78Q194.04 11.03 194.77 10.44Q195.51 9.85 196.79 9.85L196.79 9.85L197.42 9.85L197.42 11.48L196.46 11.48Q195.14 11.48 194.40 11.97Q193.66 12.47 193.66 13.23L193.66 13.23L193.66 20.35ZM208.22 16.99L210.77 9.85L212.37 9.85L207.67 22.79Q207.49 23.26 207.31 23.57Q207.12 23.89 206.86 24.07Q206.60 24.25 206.20 24.33Q205.80 24.42 205.23 24.42L205.23 24.42L204.40 24.42L204.40 22.99L206.05 22.99L206.84 20.75L202.91 9.85L204.54 9.85L207.06 16.99L207.55 18.70L207.65 18.70L208.22 16.99ZM218.32 20.59L218.32 20.59Q217.26 20.59 216.38 20.20Q215.51 19.82 214.89 19.09Q214.27 18.37 213.92 17.37Q213.57 16.36 213.57 15.10L213.57 15.10Q213.57 13.86 213.92 12.84Q214.27 11.82 214.89 11.10Q215.51 10.38 216.38 9.99Q217.26 9.60 218.32 9.60L218.32 9.60Q219.37 9.60 220.24 9.99Q221.10 10.38 221.73 11.10Q222.36 11.82 222.71 12.84Q223.06 13.86 223.06 15.10L223.06 15.10Q223.06 16.36 222.71 17.37Q222.36 18.37 221.73 19.09Q221.10 19.82 220.24 20.20Q219.37 20.59 218.32 20.59ZM218.32 19.15L218.32 19.15Q219.64 19.15 220.47 18.33Q221.31 17.52 221.31 15.85L221.31 15.85L221.31 14.34Q221.31 12.68 220.47 11.86Q219.64 11.05 218.32 11.05L218.32 11.05Q216.99 11.05 216.16 11.86Q215.32 12.68 215.32 14.34L215.32 14.34L215.32 15.85Q215.32 17.52 216.16 18.33Q216.99 19.15 218.32 19.15ZM232.21 20.35L232.21 18.64L232.13 18.64Q231.97 19.00 231.73 19.36Q231.50 19.72 231.15 19.99Q230.81 20.26 230.32 20.43Q229.83 20.59 229.18 20.59L229.18 20.59Q227.55 20.59 226.60 19.54Q225.64 18.49 225.64 16.58L225.64 16.58L225.64 9.85L227.27 9.85L227.27 16.30Q227.27 19.13 229.67 19.13L229.67 19.13Q230.16 19.13 230.61 19.00Q231.07 18.88 231.43 18.64Q231.78 18.39 232.00 18.02Q232.21 17.64 232.21 17.11L232.21 17.11L232.21 9.85L233.84 9.85L233.84 20.35L232.21 20.35ZM238.93 20.35L237.30 20.35L237.30 9.85L238.93 9.85L238.93 11.78L239.03 11.78Q239.31 11.03 240.05 10.44Q240.78 9.85 242.06 9.85L242.06 9.85L242.69 9.85L242.69 11.48L241.73 11.48Q240.41 11.48 239.67 11.97Q238.93 12.47 238.93 13.23L238.93 13.23L238.93 20.35Z"/>.<path fill="#5a5a5a" stroke="#5a5a5a" d="M1.73 69.18L1.73 54.61L3.36 54.61L3.36 56.32L3.44 56.32Q3.85 55.32 4.63 54.84Q5.41 54.37 6.51 54.37L6.51 54.37Q7.49 54.37 8.28 54.75Q9.07 55.14 9.63 55.85Q10.19 56.56 10.49 57.58Q10.78 58.60 10.78 59.86L10.78 59.86Q10.78 61.12 10.49 62.14Q10.19 63.15 9.63 63.87Q9.07 64.58 8.28 64.97Q7.49 65.35 6.51 65.35L6.51 65.35Q4.37 65.35 3.44 63.40L3.44 63.40L3.36 63.40L3.36 69.18L1.73 69.18ZM6.06 63.89L6.06 63.89Q7.45 63.89 8.24 63.02Q9.03 62.16 9.03 60.75L9.03 60.75L9.03 58.96Q9.03 57.56 8.24 56.69Q7.45 55.83 6.06 55.83L6.06 55.83Q5.51 55.83 5.02 55.98Q4.52 56.14 4.15 56.40Q3.78 56.66 3.57 57.04Q3.36 57.42 3.36 57.84L3.36 57.84L3.36 61.75Q3.36 62.26 3.57 62.66Q3.78 63.05 4.15 63.33Q4.52 63.60 5.02 63.74Q5.51 63.89 6.06 63.89ZM15.16 65.11L13.53 65.11L13.53 54.61L15.16 54.61L15.16 56.54L15.26 56.54Q15.54 55.79 16.28 55.20Q17.01 54.61 18.29 54.61L18.29 54.61L18.92 54.61L18.92 56.24L17.97 56.24Q16.64 56.24 15.90 56.74Q15.16 57.23 15.16 57.99L15.16 57.99L15.16 65.11ZM24.86 65.35L24.86 65.35Q23.81 65.35 22.93 64.97Q22.06 64.58 21.43 63.86Q20.81 63.13 20.47 62.13Q20.12 61.12 20.12 59.86L20.12 59.86Q20.12 58.62 20.47 57.60Q20.81 56.58 21.43 55.86Q22.06 55.14 22.93 54.75Q23.81 54.37 24.86 54.37L24.86 54.37Q25.92 54.37 26.79 54.75Q27.65 55.14 28.28 55.86Q28.91 56.58 29.26 57.60Q29.60 58.62 29.60 59.86L29.60 59.86Q29.60 61.12 29.26 62.13Q28.91 63.13 28.28 63.86Q27.65 64.58 26.79 64.97Q25.92 65.35 24.86 65.35ZM24.86 63.91L24.86 63.91Q26.19 63.91 27.02 63.09Q27.85 62.28 27.85 60.61L27.85 60.61L27.85 59.11Q27.85 57.44 27.02 56.62Q26.19 55.81 24.86 55.81L24.86 55.81Q23.54 55.81 22.71 56.62Q21.87 57.44 21.87 59.11L21.87 59.11L21.87 60.61Q21.87 62.28 22.71 63.09Q23.54 63.91 24.86 63.91ZM32.74 65.11L32.74 56.03L31.03 56.03L31.03 54.61L32.74 54.61L32.74 52.49Q32.74 51.39 33.31 50.72Q33.88 50.05 35.04 50.05L35.04 50.05L36.62 50.05L36.62 51.48L34.36 51.48L34.36 54.61L36.62 54.61L36.62 56.03L34.36 56.03L34.36 65.11L32.74 65.11ZM39.57 52.15L39.57 52.15Q39.04 52.15 38.81 51.89Q38.58 51.64 38.58 51.23L38.58 51.23L38.58 50.97Q38.58 50.56 38.81 50.31Q39.04 50.05 39.57 50.05L39.57 50.05Q40.10 50.05 40.34 50.31Q40.57 50.56 40.57 50.97L40.57 50.97L40.57 51.23Q40.57 51.64 40.34 51.89Q40.10 52.15 39.57 52.15ZM38.76 65.11L38.76 54.61L40.39 54.61L40.39 65.11L38.76 65.11ZM47.02 65.11L45.58 65.11Q44.72 65.11 44.28 64.63Q43.85 64.15 43.85 63.42L43.85 63.42L43.85 50.05L45.47 50.05L45.47 63.68L47.02 63.68L47.02 65.11ZM53.33 65.35L53.33 65.35Q52.25 65.35 51.38 64.97Q50.52 64.58 49.90 63.86Q49.28 63.13 48.94 62.13Q48.61 61.12 48.61 59.86L48.61 59.86Q48.61 58.62 48.94 57.60Q49.28 56.58 49.90 55.86Q50.52 55.14 51.38 54.75Q52.25 54.37 53.33 54.37L53.33 54.37Q54.39 54.37 55.22 54.75Q56.05 55.14 56.64 55.82Q57.23 56.50 57.55 57.44Q57.86 58.37 57.86 59.49L57.86 59.49L57.86 60.27L50.32 60.27L50.32 60.75Q50.32 61.43 50.53 62.01Q50.74 62.59 51.14 63.01Q51.54 63.44 52.12 63.68Q52.70 63.93 53.43 63.93L53.43 63.93Q54.43 63.93 55.17 63.46Q55.91 62.99 56.32 62.12L56.32 62.12L57.48 62.95Q56.97 64.03 55.89 64.69Q54.81 65.35 53.33 65.35ZM53.33 55.73L53.33 55.73Q52.66 55.73 52.11 55.96Q51.56 56.20 51.16 56.62Q50.76 57.05 50.54 57.63Q50.32 58.21 50.32 58.90L50.32 58.90L50.32 59.04L56.11 59.04L56.11 58.82Q56.11 57.42 55.35 56.57Q54.59 55.73 53.33 55.73ZM61.18 65.35L61.18 65.35Q60.53 65.35 60.24 65.03Q59.94 64.70 59.94 64.17L59.94 64.17L59.94 63.91Q59.94 63.38 60.24 63.05Q60.53 62.73 61.18 62.73L61.18 62.73Q61.83 62.73 62.13 63.05Q62.42 63.38 62.42 63.91L62.42 63.91L62.42 64.17Q62.42 64.70 62.13 65.03Q61.83 65.35 61.18 65.35Z"/></g><g transform="translate(438.463 324.071) scale(0.842 0.845) rotate(0 52.719714964370546 118.48520710059172)"> <g id="Layer_146uNTmQxiGJrsZ05cpLPXF">  <g>   <g>    <path d="M103.65,9.686c-0.003,0-0.006,0.005-0.01,0.005l0-0.004l-9.071,0.628l0.807,11.662l9.071-0.628     l0-0.004c0.003,0,0.007,0.004,0.01,0.004c0.71-0.049,1.105-2.7,0.882-5.92C105.116,12.208,104.36,9.637,103.65,9.686z" fill="#616161"/>         <ellipse transform="matrix(0.9976 -0.0691 0.0691 0.9976 -0.8884 6.5989)" cx="94.973" cy="16.146" rx="1.299" ry="5.845" fill="#424242"/>    <path d="M95.601,16.102c-0.159-2.297-0.526-4.159-0.854-4.437c-0.054-0.056-0.088-0.055-0.088-0.055     l-22.344,1.547l0.628,9.071l22.344-1.547c0,0,0.033-0.005,0.079-0.067C95.652,20.296,95.76,18.4,95.601,16.102z" fill="#616161"/>         <ellipse transform="matrix(0.9976 -0.0691 0.0691 0.9976 -1.0487 5.0591)" cx="72.628" cy="17.693" rx="0.932" ry="4.546" fill="#424242"/>    <path d="M72.242,14.464l-19.108,1.323l0.449,6.479l19.108-1.323c0.324-0.022,0.486-1.491,0.362-3.28     C72.929,15.874,72.566,14.442,72.242,14.464z" fill="#616161"/>   </g>   <path d="M52.289,31.255c-0.766,1.76-2.71,3.561-7.226,6.233c0,0-1.807,0.89-0.903,5.343H27.903    c0,0,2.575-1.523,4.226-5.338c0.932-2.152,0.529-4.624-0.898-6.494C29.391,28.587,27,24.549,27,15.226    C27,4.54,34.854,1.01,41.342,1C50.641,0.985,55,7.212,55,18.788C54.999,22.945,54.469,26.254,52.289,31.255z" fill="#FFCCBC"/>   <path d="M30.5,31.436C28.854,28.9,27,25.567,27,16.156C27,5.371,33.125,0.026,42.644,0    c7.981-0.021,11.339,5.607,12.214,11c0,0-1.664-0.321-2.89,0.938c-1.75,1.798-0.401,4.098-0.538,6.122    c-0.12,1.775-1.024,2.501-1.712,2.878c-1.438-5.719-4.649-5.383-5.812-4.188c-1.75,1.798-0.694,6.863,1.093,8.222    c0,3.595-0.569,6.569-3.194,8.367C37.111,36.553,32.25,34.132,30.5,31.436z" fill="#6D4C41"/>   <path d="M79.824,41.088C70.296,28.57,67.932,17.167,67.518,14.772c-0.046-0.267-0.253-0.476-0.522-0.53l0,0    c-5.936-0.853-9.346,0.826-9.346,0.826c-0.989,0.558-1.061,2.172-0.954,3.29C57.018,21.727,56,22.001,56,22.001    c0,1.492,1.408,2.08,2.618,2.975l2.524,1.209c0,0,3.558,3.506,10.675,18.408C72.876,46.812,81.316,43.049,79.824,41.088z" fill="#FFCCBC"/>   <path d="M11.279,48.782L11,99l-3.066-4.766C6.658,91.69,6,88.843,6,86V64c0-3.689,0.807-7.136,2.33-10.402    C9.122,51.89,10.108,50.279,11.279,48.782z" fill="#78909C"/>   <path d="M44,226v6.877c0,0,0,4.123,4,4.123c7.923,0,21,0,21,0s1.046-5.35-5.901-6.543C53,229,53,226,53,226    H44z" fill="#607D8B"/>   <path d="M25.92,227.181l-21.128,2.641c-1.459,0-2.641-1.182-2.641-2.641l0.88-5.282l8.803-1.761l0,0    c1.058,2.116,5.083,3.348,7.434,3.087l0.169-0.015C22.239,222.955,24.875,224.57,25.92,227.181L25.92,227.181z" fill="#607D8B"/>   <polygon points="3.031,221.899 11.834,220.138 13,213 4,213   " fill="#FFCCBC"/>   <path d="M12.103,113.165c0,0-3.714,32.027-2.603,53.561C5.377,180.705,2,214,2,214h12    c0,0,14.119-46.471,18.917-65.664c1.761-7.043,1.725-32.918,1.725-32.918L12.103,113.165z" fill="#01579B"/>   <polygon points="43,215.692 44,226 53,226 53,214.692   " fill="#FFCCBC"/>   <path d="M57.059,116.998l-1.596,98.416l-11.612,0.829l-3.52,0.251c0,0-3.336-21.637-5.688-44.553    c-6.142-17.75-8.851-40.223-11.918-62L57.059,116.998z" fill="#1A68A5"/>   <polygon points="57.059,72.601 57.059,116.998 32.625,114.692   " fill="#90CAF9"/>   <path d="M57.937,66.567l22.355-2.692c6.321-0.79,9.734-7.831,6.441-13.288L79.587,39l-9.325,4.665    l1.748,3.155c0.464,0.788-0.432,1.675-1.215,1.201l-6.966-4.222c-3.895-1.834-8.094-2.938-12.387-3.257l-18.518-1.375    c-8.493-0.653-16.425,2.473-21.646,9.573c-0.128,0.174-1.76,28.873-1.76,47.061c0,7.35-1.659,10.448-5.621,13.4    C1.14,111.254,0,112,0,112s1.312,3.43,7.5,8.812c3.874,3.37,13.777,4.127,21.875,4.127S45,129,45,129s9.801-25.744,11.369-38.595    S57.937,66.567,57.937,66.567z" fill="#90A4AE"/>   <path d="M3.896,109.211C1.14,111.264,0,112,0,112s1.312,3.438,7.5,8.817    c3.874,3.368,13.777,4.125,21.875,4.125S45,129,45,129s0.937-2.008,2.136-5.428C36,113.858,14.333,124.692,3.896,109.211z" fill="#78909C"/>   <polygon points="70.262,43.71 79.587,39.048 82.356,43.925 72.01,46.863   " fill="#78909C"/>  </g> </g> <g id="Isolation_Mode6uNTmQxiGJrsZ05cpLPXF"> </g> </g>
              </svg>